<svg aria-hidden="true" focusable="false" data-prefix="fas" data-icon="bed-alt" role="img" xmlns="http://www.w3.org/2000/svg" viewBox="0 0 512 512" class="svg-inline--fa fa-bed-alt fa-w-16 fa-2x"><path fill="currentColor" d="M80,160a32,32,0,0,1,32-32h96a32,32,0,0,1,32,32v32h32V160a32,32,0,0,1,32-32h96a32,32,0,0,1,32,32v32h48V64a32,32,0,0,0-32-32H64A32,32,0,0,0,32,64V192H80Zm368,64H64A64,64,0,0,0,0,288V464a16,16,0,0,0,16,16H48a16,16,0,0,0,16-16V416H448v48a16,16,0,0,0,16,16h32a16,16,0,0,0,16-16V288A64,64,0,0,0,448,224Z" class=""></path></svg>